<svg width="20" height="16" viewBox="0.00079345703125 0.499481201171875 19.9984130859375 15.00103759765625" fill="none" xmlns="http://www.w3.org/2000/svg">
<path d="M9.17659 14.5702C9.26834 14.7034 9.3911 14.8124 9.53431 14.8876C9.67752 14.9629 9.83687 15.0022 9.99866 15.0022C10.1604 15.0022 10.3198 14.9629 10.463 14.8876C10.6062 14.8124 10.729 14.7034 10.8207 14.5702L19.8214 1.56913C19.9256 1.41917 19.9867 1.24353 19.9981 1.06129C20.0095 0.87905 19.9707 0.697179 19.8859 0.535436C19.8012 0.373694 19.6737 0.238267 19.5174 0.14387C19.3611 0.049472 19.182 -0.000286367 18.9994 1.23975e-06H0.997941C0.81577 0.000753709 0.63725 0.0511519 0.48158 0.145776C0.325911 0.2404 0.19898 0.375669 0.114439 0.537037C0.0298986 0.698405 -0.00905388 0.879766 0.00177094 1.06162C0.0125958 1.24347 0.0727883 1.41893 0.175875 1.56913L9.17659 14.5702Z" fill="black"/>
</svg>
