<svg width="80" height="80" viewBox="0 0 80 80" fill="none" xmlns="http://www.w3.org/2000/svg">
<path d="M68.2842 11.7158C60.7293 4.1609 50.6842 0 40 0C29.3158 0 19.2707 4.1609 11.7158 11.7158C4.16091 19.2707 0 29.3158 0 40C0 49.7519 3.46617 58.9714 9.81805 66.2511C10.4241 66.9474 11.0571 67.6256 11.7158 68.2842C11.8707 68.4391 12.0271 68.594 12.185 68.7444C12.606 69.1519 13.0346 69.5504 13.4707 69.9368C13.7353 70.1729 14.003 70.4045 14.2737 70.6316C14.4857 70.8105 14.6978 70.9865 14.9128 71.1594C14.9173 71.1639 14.9203 71.1669 14.9248 71.1699C15.5218 71.6511 16.1293 72.1143 16.7489 72.5594C23.4872 77.3925 31.5429 80 40 80C49.2617 80 58.0406 76.8737 65.1368 71.1203C65.7158 70.6511 66.2827 70.1639 66.8391 69.6601C67.3308 69.215 67.812 68.7564 68.2842 68.2842C68.4331 68.1353 68.582 67.985 68.7278 67.8331C69.1338 67.415 69.5278 66.9895 69.9128 66.5579C76.4346 59.2316 80 49.8902 80 40C80 29.3158 75.8391 19.2707 68.2842 11.7158ZM69.815 66.1835C69.4391 66.6105 69.0541 67.0316 68.6601 67.4421C68.0466 68.0812 67.4135 68.7007 66.7594 69.2977C66.5113 69.5263 66.2601 69.7489 66.006 69.9699C65.7173 70.2211 65.4256 70.4677 65.1293 70.7098C62.794 72.6271 60.2361 74.2812 57.5008 75.6286C56.4195 76.1624 55.3113 76.6481 54.1774 77.0827C49.7729 78.7729 44.9925 79.6992 40 79.6992C35.182 79.6992 30.5624 78.8361 26.2872 77.2571C24.5323 76.6105 22.8361 75.8421 21.2075 74.9624C20.9684 74.8331 20.7308 74.7023 20.4947 74.5684C19.2526 73.8647 18.0511 73.0962 16.8978 72.2662C16.8602 72.2391 16.8211 72.2105 16.7835 72.1835C15.9624 71.591 15.1639 70.9669 14.3925 70.3113C14.1098 70.0722 13.8301 69.8301 13.5549 69.582C13.1068 69.1835 12.6677 68.7729 12.2391 68.3519C11.4271 67.5564 10.6511 66.7278 9.90978 65.8662C3.92331 58.9128 0.300752 49.8722 0.300752 40C0.300752 18.1098 18.1098 0.300752 40 0.300752C61.8902 0.300752 79.6992 18.1098 79.6992 40C79.6992 50.0241 75.9654 59.191 69.815 66.1835Z" fill="#3F3D56"/>
</svg>
