<svg width="49" height="24" viewBox="0.305999755859375 0.0736846923828125 48.38800048828125 23.852630615234375" fill="none" xmlns="http://www.w3.org/2000/svg">
<path d="M48.6869 15.0654C41.5469 20.8544 32.7137 24 23.3948 24C14.8854 24 6.77998 21.3764 0 16.5134C0.0121074 16.3863 0.0242136 16.2608 0.0348064 16.1352C0.214859 14.1682 0.375243 12.2557 0.481149 10.67C0.891189 4.51343 15.2546 0.41004 15.2546 0.41004C15.2546 0.41004 15.3196 0.4751 15.4498 0.588579C16.2426 1.28458 19.4609 3.80835 25.1045 4.51343C30.1369 5.14286 31.7937 2.15761 32.2945 0.727777C32.4459 0.292018 32.4912 0 32.4912 0L47.2647 6.97667C48.2285 8.35355 48.6052 11.3191 48.6794 14.6524C48.6824 14.7901 48.6854 14.9262 48.6869 15.0654Z" fill="#BBF7F3"/>
</svg>
