<svg width="27" height="30" viewBox="0.406341552734375 0.3375396728515625 26.18731689453125 29.324920654296875" fill="none" xmlns="http://www.w3.org/2000/svg">
<path d="M6.54732 29.408L9.16734 30C9.16734 30 7.10773 23.4689 7.80681 22.8454C8.50589 22.2219 10.219 23.2043 10.219 23.2043L12.0192 25.2227L14.212 22.9901C14.212 22.9901 16.5926 20.03 17.5247 19.1986C18.4568 18.3672 16.9597 15.2813 16.9597 15.2813C16.9597 15.2813 30.7884 11.5524 25.6427 4.84502C25.6427 4.84502 22.6258 -0.413851 21.6433 1.29926C20.6609 3.01236 19.4894 0.2916 19.4894 0.2916L15.9121 0.971865C15.9121 0.971865 8.85179 -3.19105 2.15077 5.71462C-4.55025 14.6203 6.54732 29.408 6.54732 29.408Z" fill="#2F2E41"/>
</svg>
