<svg width="22" height="27" viewBox="0.333343505859375 0.433990478515625 21.33331298828125 26.13201904296875" fill="none" xmlns="http://www.w3.org/2000/svg">
<path d="M20.6869 6.87501C21.2066 6.35526 21.4926 5.665 21.4926 4.93075C21.4926 4.1965 21.2066 3.50625 20.6869 2.9865L18.5061 0.805751C17.9864 0.286 17.2961 0 16.5619 0C15.8276 0 15.1374 0.286 14.619 0.804376L0 15.378V21.4486H6.06788L20.6869 6.87501ZM16.5619 2.75L18.744 4.92938L16.5578 7.10738L14.377 4.928L16.5619 2.75ZM2.75 18.6986V16.5193L12.43 6.86951L14.6108 9.05026L4.93213 18.6986H2.75ZM0 24.1986H22V26.9486H0V24.1986Z" fill="black"/>
</svg>
