<svg width="87" height="87" viewBox="0.15582275390625 0.166656494140625 86.6883544921875 86.66668701171875" fill="none" xmlns="http://www.w3.org/2000/svg">
<path d="M83.7557 43.263C84.6726 43.0278 85.4858 42.4959 86.0687 41.7501C86.6517 41.0044 86.9714 40.0867 86.9782 39.1402V26.0935C86.9782 24.9435 86.5223 23.8404 85.7104 23.026C84.8984 22.2116 83.7967 21.7524 82.6467 21.7489V17.3956H82.6293C82.6293 7.80195 74.8274 0 65.2337 0H21.7446C12.1509 0 4.34891 7.80195 4.34891 17.3956V21.7446C3.19551 21.7446 2.08935 22.2027 1.27377 23.0183C0.458187 23.8339 0 24.9401 0 26.0935V39.1402C0 41.1451 1.37861 42.7585 3.22689 43.263C1.13672 46.1766 0.00996455 49.671 0.0043486 53.2568L0.0217451 69.5956C0.026094 72.7834 1.7787 75.5493 4.34891 77.0584V82.6293C4.34891 83.7827 4.8071 84.8889 5.62268 85.7045C6.43826 86.5201 7.54442 86.9782 8.69782 86.9782H13.0467C14.2001 86.9782 15.3063 86.5201 16.1219 85.7045C16.9375 84.8889 17.3956 83.7827 17.3956 82.6293V78.2804H69.5826V82.6293C69.5826 83.7827 70.0408 84.8889 70.8564 85.7045C71.6719 86.5201 72.7781 86.9782 73.9315 86.9782H78.2804C79.4338 86.9782 80.54 86.5201 81.3556 85.7045C82.1711 84.8889 82.6293 83.7827 82.6293 82.6293V77.0888C83.2962 76.7166 83.9117 76.259 84.4602 75.7276C86.0998 74.0837 87.0043 71.8962 87 69.5739L86.9826 53.2263C86.9656 49.651 85.838 46.1694 83.7557 43.263ZM13.0467 69.5826H8.71957L8.70217 53.2437C8.69782 51.2476 9.40235 49.3732 10.6287 47.838H76.3451C77.5759 49.3732 78.2804 51.2432 78.2848 53.2394L78.3065 69.5826H13.0467ZM39.1576 26.0935V39.1402H13.0467V26.0935H39.1576ZM73.9315 39.1402H47.8554V26.0935H73.9315V39.1402ZM21.7446 8.69782H65.2337C70.0305 8.69782 73.9315 12.5988 73.9315 17.3956H56.5359V13.0467H30.4424V17.3956H13.0467C13.0467 12.5988 16.9477 8.69782 21.7446 8.69782Z" fill="black"/>
</svg>
