<svg width="21" height="20" viewBox="0 0 21 20" fill="none" xmlns="http://www.w3.org/2000/svg">
<path d="M19.259 9.948C19.4698 9.89392 19.6568 9.77161 19.7909 9.60013C19.9249 9.42865 19.9984 9.21764 20 9V6C20 5.73557 19.8952 5.48192 19.7085 5.29466C19.5218 5.1074 19.2684 5.00179 19.004 5.001V4H19C19 1.794 17.206 0 15 0H5C2.794 0 1 1.794 1 4V5C0.734784 5 0.48043 5.10536 0.292893 5.29289C0.105357 5.48043 0 5.73478 0 6V9C0 9.461 0.317 9.832 0.742 9.948C0.261381 10.618 0.00229127 11.4215 0.000999928 12.246L0.00500011 16.003C0.00600011 16.736 0.409 17.372 1 17.719V19C1 19.2652 1.10536 19.5196 1.29289 19.7071C1.48043 19.8946 1.73478 20 2 20H3C3.26522 20 3.51957 19.8946 3.70711 19.7071C3.89464 19.5196 4 19.2652 4 19V18H16V19C16 19.2652 16.1054 19.5196 16.2929 19.7071C16.4804 19.8946 16.7348 20 17 20H18C18.2652 20 18.5196 19.8946 18.7071 19.7071C18.8946 19.5196 19 19.2652 19 19V17.726C19.1533 17.6404 19.2949 17.5352 19.421 17.413C19.798 17.035 20.006 16.532 20.005 15.998L20.001 12.239C19.9971 11.4169 19.7378 10.6163 19.259 9.948ZM3 16H2.005L2.001 12.243C2 11.784 2.162 11.353 2.444 11H17.555C17.838 11.353 18 11.783 18.001 12.242L18.006 16H3ZM9.004 6V9H3V6H9.004ZM17 9H11.004V6H17V9ZM5 2H15C16.103 2 17 2.897 17 4H13V3H7V4H3C3 2.897 3.897 2 5 2Z" fill="black"/>
</svg>
