<svg width="40" height="40" viewBox="0 0 40 40" fill="none" xmlns="http://www.w3.org/2000/svg">
<path d="M34.1421 5.8579C30.3647 2.08045 25.3421 0 20 0C14.6579 0 9.63534 2.08045 5.8579 5.8579C2.08045 9.63534 0 14.6579 0 20C0 24.8759 1.73309 29.4857 4.90903 33.1256C5.21203 33.4737 5.52857 33.8128 5.8579 34.1421C5.93534 34.2195 6.01354 34.297 6.09248 34.3722C6.30301 34.5759 6.5173 34.7752 6.73534 34.9684C6.86767 35.0865 7.00151 35.2023 7.13685 35.3158C7.24286 35.4053 7.34888 35.4932 7.4564 35.5797C7.45865 35.582 7.46015 35.5835 7.46241 35.585C7.76091 35.8256 8.06466 36.0571 8.37444 36.2797C11.7436 38.6962 15.7714 40 20 40C24.6308 40 29.0203 38.4368 32.5684 35.5602C32.8579 35.3256 33.1414 35.082 33.4196 34.8301C33.6654 34.6075 33.906 34.3782 34.1421 34.1421C34.2165 34.0677 34.291 33.9925 34.3639 33.9165C34.5669 33.7075 34.7639 33.4947 34.9564 33.2789C38.2173 29.6158 40 24.9451 40 20C40 14.6579 37.9195 9.63534 34.1421 5.8579ZM34.9075 33.0917C34.7195 33.3053 34.5271 33.5158 34.3301 33.7211C34.0233 34.0406 33.7068 34.3504 33.3797 34.6489C33.2556 34.7632 33.1301 34.8744 33.003 34.985C32.8586 35.1105 32.7128 35.2338 32.5647 35.3549C31.397 36.3135 30.118 37.1406 28.7504 37.8143C28.2098 38.0812 27.6556 38.3241 27.0887 38.5414C24.8865 39.3865 22.4962 39.8496 20 39.8496C17.591 39.8496 15.2812 39.418 13.1436 38.6286C12.2662 38.3053 11.418 37.9211 10.6038 37.4812C10.4842 37.4165 10.3654 37.3511 10.2474 37.2842C9.62632 36.9323 9.02557 36.5481 8.44888 36.1331C8.43008 36.1195 8.41053 36.1053 8.39173 36.0917C7.9812 35.7955 7.58196 35.4835 7.19624 35.1556C7.05489 35.0361 6.91504 34.915 6.77744 34.791C6.55339 34.5917 6.33384 34.3865 6.11955 34.1759C5.71354 33.7782 5.32557 33.3639 4.95489 32.9331C1.96166 29.4564 0.150376 24.9361 0.150376 20C0.150376 9.05489 9.05489 0.150376 20 0.150376C30.9451 0.150376 39.8496 9.05489 39.8496 20C39.8496 25.012 37.9827 29.5955 34.9075 33.0917Z" fill="#3F3D56"/>
</svg>
