<svg width="14" height="15" viewBox="0.4531707763671875 0.16876220703125 13.093658447265625 14.6624755859375" fill="none" xmlns="http://www.w3.org/2000/svg">
<path d="M3.27365 14.704L4.58367 15C4.58367 15 3.55386 11.7344 3.9034 11.4227C4.25294 11.1109 5.10949 11.6022 5.10949 11.6022L6.0096 12.6113L7.10599 11.495C7.10599 11.495 8.29631 10.015 8.76236 9.59928C9.22841 9.1836 8.47982 7.64065 8.47982 7.64065C8.47982 7.64065 15.3942 5.7762 12.8213 2.42251C12.8213 2.42251 11.3129 -0.206925 10.8217 0.649628C10.3304 1.50618 9.74468 0.1458 9.74468 0.1458L7.95602 0.485932C7.95602 0.485932 4.42589 -1.59552 1.07538 2.85731C-2.27512 7.31014 3.27365 14.704 3.27365 14.704Z" fill="#2F2E41"/>
</svg>
