<svg width="25" height="12" viewBox="0.40301513671875 0.036834716796875 24.1939697265625 11.92633056640625" fill="none" xmlns="http://www.w3.org/2000/svg">
<path d="M24.3434 7.53271C20.7734 10.4272 16.3568 12 11.6974 12C7.44268 12 3.38998 10.6882 0 8.25671C0.00605371 8.19316 0.0121068 8.13037 0.0174032 8.06757C0.10743 7.08409 0.187621 6.12785 0.240574 5.33501C0.445594 2.25671 7.62728 0.20502 7.62728 0.20502C7.62728 0.20502 7.65981 0.23755 7.72487 0.294289C8.12129 0.642289 9.73041 1.90417 12.5523 2.25671C15.0684 2.57142 15.8968 1.0788 16.1473 0.363888C16.2229 0.146009 16.2456 0 16.2456 0L23.6323 3.48833C24.1142 4.17677 24.3026 5.65956 24.3397 7.32618C24.3412 7.39502 24.3427 7.46311 24.3434 7.53271Z" fill="#BBF7F3"/>
</svg>
